<svg width="1341" height="234" viewBox="0 0 1341 234" fill="none" xmlns="http://www.w3.org/2000/svg">
<path d="M369.188 54.92H389.338L424.308 148H404.938L397.138 125.77H361.518L353.718 148H334.348L369.188 54.92ZM391.418 109.65L383.228 86.25L379.848 75.07H378.808L375.428 86.25L367.108 109.65H391.418ZM472.757 150.08C468.25 150.08 464.22 149.127 460.667 147.22C457.2 145.313 454.6 142.93 452.867 140.07H451.827V148H435.837V54.92H452.867V80.4L451.827 89.76H452.867C454.687 86.9 457.33 84.5167 460.797 82.61C464.263 80.6167 468.25 79.62 472.757 79.62C478.737 79.62 484.153 81.1367 489.007 84.17C493.947 87.1167 497.803 91.2767 500.577 96.65C503.35 102.023 504.737 108.09 504.737 114.85C504.737 121.697 503.35 127.807 500.577 133.18C497.803 138.467 493.947 142.627 489.007 145.66C484.153 148.607 478.737 150.08 472.757 150.08ZM469.767 134.35C472.973 134.35 475.963 133.527 478.737 131.88C481.51 130.233 483.72 127.937 485.367 124.99C487.013 122.043 487.837 118.663 487.837 114.85C487.837 111.037 487.013 107.657 485.367 104.71C483.72 101.763 481.51 99.51 478.737 97.95C475.963 96.3033 472.973 95.48 469.767 95.48C466.647 95.48 463.7 96.3033 460.927 97.95C458.153 99.51 455.943 101.763 454.297 104.71C452.65 107.657 451.827 111.037 451.827 114.85C451.827 118.663 452.65 122.043 454.297 124.99C455.943 127.937 458.153 130.233 460.927 131.88C463.7 133.527 466.647 134.35 469.767 134.35ZM550.869 150.08C544.022 150.08 537.912 148.563 532.539 145.53C527.165 142.41 522.962 138.207 519.929 132.92C516.982 127.547 515.509 121.523 515.509 114.85C515.509 108.263 516.982 102.283 519.929 96.91C522.962 91.5367 527.165 87.3333 532.539 84.3C537.912 81.18 544.022 79.62 550.869 79.62C557.629 79.62 563.695 81.18 569.069 84.3C574.442 87.3333 578.602 91.5367 581.549 96.91C584.582 102.283 586.099 108.263 586.099 114.85C586.099 121.523 584.582 127.547 581.549 132.92C578.602 138.207 574.442 142.41 569.069 145.53C563.695 148.563 557.629 150.08 550.869 150.08ZM550.869 134.35C554.162 134.35 557.195 133.57 559.969 132.01C562.742 130.45 564.952 128.197 566.599 125.25C568.245 122.303 569.069 118.837 569.069 114.85C569.069 110.95 568.245 107.527 566.599 104.58C564.952 101.633 562.742 99.38 559.969 97.82C557.195 96.26 554.162 95.48 550.869 95.48C547.575 95.48 544.542 96.26 541.769 97.82C538.995 99.38 536.742 101.633 535.009 104.58C533.362 107.527 532.539 110.95 532.539 114.85C532.539 118.75 533.362 122.217 535.009 125.25C536.742 128.197 538.995 130.45 541.769 132.01C544.542 133.57 547.575 134.35 550.869 134.35ZM623.714 150.08C615.741 150.08 609.674 147.61 605.514 142.67C601.354 137.73 599.274 130.84 599.274 122V81.7H616.304V119.92C616.304 124.427 617.388 127.98 619.554 130.58C621.721 133.093 624.581 134.35 628.134 134.35C632.988 134.35 636.844 132.573 639.704 129.02C642.564 125.467 643.994 120.96 643.994 115.5V81.7H661.024V148H645.034V139.68H643.994C642.001 142.887 639.184 145.443 635.544 147.35C631.991 149.17 628.048 150.08 623.714 150.08ZM708.411 149.04C705.118 149.04 702.085 148.563 699.311 147.61C696.538 146.57 694.285 145.183 692.551 143.45C688.478 139.55 686.441 134.003 686.441 126.81V96.26H674.871V81.7H686.441V62.98H703.471V81.7H719.721V96.26H703.471V123.69C703.471 127.07 704.208 129.497 705.681 130.97C706.895 132.357 708.975 133.05 711.921 133.05C713.568 133.05 714.911 132.833 715.951 132.4C717.078 131.967 718.508 131.23 720.241 130.19V146.83C716.515 148.303 712.571 149.04 708.411 149.04ZM896.513 150.08C889.233 150.08 882.863 148.52 877.403 145.4C872.03 142.28 867.826 137.773 864.793 131.88C861.846 125.987 860.373 119.01 860.373 110.95V54.92H877.793V111.99C877.793 118.403 879.396 123.603 882.603 127.59C885.896 131.49 890.533 133.44 896.513 133.44C902.493 133.44 907.086 131.49 910.293 127.59C913.586 123.603 915.233 118.403 915.233 111.99V54.92H932.653V110.95C932.653 118.663 931.18 125.467 928.233 131.36C925.286 137.253 921.083 141.847 915.623 145.14C910.163 148.433 903.793 150.08 896.513 150.08ZM976.507 150.08C968.447 150.08 961.903 148.433 956.877 145.14C951.937 141.847 948.47 137.557 946.477 132.27L961.687 125.64C963.073 128.76 965.023 131.143 967.537 132.79C970.137 134.35 973.127 135.13 976.507 135.13C979.627 135.13 982.227 134.653 984.307 133.7C986.387 132.66 987.427 131.013 987.427 128.76C987.427 126.593 986.473 124.99 984.567 123.95C982.66 122.823 979.8 121.827 975.987 120.96L968.187 119.27C962.813 117.97 958.35 115.63 954.797 112.25C951.243 108.783 949.467 104.493 949.467 99.38C949.467 95.5667 950.593 92.1433 952.847 89.11C955.187 86.0767 958.307 83.7367 962.207 82.09C966.193 80.4433 970.57 79.62 975.337 79.62C989.03 79.62 998.173 84.43 1002.77 94.05L988.207 100.42C985.607 95.74 981.447 93.4 975.727 93.4C972.78 93.4 970.44 93.9633 968.707 95.09C966.973 96.13 966.107 97.4733 966.107 99.12C966.107 102.24 969.053 104.58 974.947 106.14L984.697 108.48C991.283 110.127 996.223 112.64 999.517 116.02C1002.9 119.4 1004.59 123.56 1004.59 128.5C1004.59 132.747 1003.33 136.517 1000.82 139.81C998.39 143.017 995.01 145.53 990.677 147.35C986.43 149.17 981.707 150.08 976.507 150.08Z" fill="#291471"/>
<path d="M788.981 95.3911L791.012 23L797.104 95.3911L818.426 74.4082L802.181 101.686L852.947 110.079H797.104V181.421L788.981 115.325L768.675 133.16L783.905 110.079L724 105.883L783.905 101.686L768.675 74.4082L788.981 95.3911Z" fill="#291471"/>
<path d="M224.262 199.668H226.8L230.31 213.87L230.634 215.193H230.742L231.147 213.87L235.467 199.668H237.843L241.974 213.87L242.379 215.193H242.487L246.294 199.668H248.832L243.621 219H241.245L237.141 205.014L236.709 203.502H236.601L236.142 205.014L231.876 219H229.5L224.262 199.668ZM251.271 199.668H253.566V205.365L253.458 207.255H253.566C253.944 206.553 254.538 205.968 255.348 205.5C256.176 205.032 257.076 204.798 258.048 204.798C259.722 204.798 261 205.293 261.882 206.283C262.764 207.255 263.205 208.551 263.205 210.171V219H260.91V210.522C260.91 209.28 260.595 208.362 259.965 207.768C259.335 207.174 258.516 206.877 257.508 206.877C256.788 206.877 256.122 207.093 255.51 207.525C254.916 207.957 254.439 208.515 254.079 209.199C253.737 209.883 253.566 210.594 253.566 211.332V219H251.271V199.668ZM272.91 219.432C271.596 219.432 270.417 219.117 269.373 218.487C268.329 217.857 267.51 216.993 266.916 215.895C266.34 214.779 266.052 213.528 266.052 212.142C266.052 210.81 266.322 209.586 266.862 208.47C267.42 207.354 268.203 206.463 269.211 205.797C270.219 205.131 271.389 204.798 272.721 204.798C274.071 204.798 275.241 205.104 276.231 205.716C277.221 206.31 277.977 207.138 278.499 208.2C279.039 209.262 279.309 210.477 279.309 211.845C279.309 212.115 279.282 212.349 279.228 212.547H268.347C268.401 213.591 268.653 214.473 269.103 215.193C269.553 215.913 270.12 216.453 270.804 216.813C271.506 217.173 272.235 217.353 272.991 217.353C274.755 217.353 276.114 216.525 277.068 214.869L279.012 215.814C278.418 216.93 277.608 217.812 276.582 218.46C275.574 219.108 274.35 219.432 272.91 219.432ZM276.879 210.657C276.843 210.081 276.681 209.505 276.393 208.929C276.105 208.353 275.646 207.867 275.016 207.471C274.404 207.075 273.63 206.877 272.694 206.877C271.614 206.877 270.696 207.228 269.94 207.93C269.202 208.614 268.716 209.523 268.482 210.657H276.879ZM282.265 205.23H284.452V207.444H284.56C284.83 206.688 285.352 206.067 286.126 205.581C286.9 205.077 287.71 204.825 288.556 204.825C289.186 204.825 289.726 204.915 290.176 205.095V207.579C289.6 207.291 288.952 207.147 288.232 207.147C287.566 207.147 286.954 207.336 286.396 207.714C285.838 208.092 285.388 208.605 285.046 209.253C284.722 209.883 284.56 210.567 284.56 211.305V219H282.265V205.23ZM297.972 219.432C296.658 219.432 295.479 219.117 294.435 218.487C293.391 217.857 292.572 216.993 291.978 215.895C291.402 214.779 291.114 213.528 291.114 212.142C291.114 210.81 291.384 209.586 291.924 208.47C292.482 207.354 293.265 206.463 294.273 205.797C295.281 205.131 296.451 204.798 297.783 204.798C299.133 204.798 300.303 205.104 301.293 205.716C302.283 206.31 303.039 207.138 303.561 208.2C304.101 209.262 304.371 210.477 304.371 211.845C304.371 212.115 304.344 212.349 304.29 212.547H293.409C293.463 213.591 293.715 214.473 294.165 215.193C294.615 215.913 295.182 216.453 295.866 216.813C296.568 217.173 297.297 217.353 298.053 217.353C299.817 217.353 301.176 216.525 302.13 214.869L304.074 215.814C303.48 216.93 302.67 217.812 301.644 218.46C300.636 219.108 299.412 219.432 297.972 219.432ZM301.941 210.657C301.905 210.081 301.743 209.505 301.455 208.929C301.167 208.353 300.708 207.867 300.078 207.471C299.466 207.075 298.692 206.877 297.756 206.877C296.676 206.877 295.758 207.228 295.002 207.93C294.264 208.614 293.778 209.523 293.544 210.657H301.941ZM312.36 205.23H314.709L318.003 216.111H318.03L321.486 205.23H323.862L327.345 216.084H327.372L330.639 205.23H332.961L328.506 219H326.184L322.62 208.011L319.083 219H316.788L312.36 205.23ZM340.996 219.432C339.682 219.432 338.503 219.117 337.459 218.487C336.415 217.857 335.596 216.993 335.002 215.895C334.426 214.779 334.138 213.528 334.138 212.142C334.138 210.81 334.408 209.586 334.948 208.47C335.506 207.354 336.289 206.463 337.297 205.797C338.305 205.131 339.475 204.798 340.807 204.798C342.157 204.798 343.327 205.104 344.317 205.716C345.307 206.31 346.063 207.138 346.585 208.2C347.125 209.262 347.395 210.477 347.395 211.845C347.395 212.115 347.368 212.349 347.314 212.547H336.433C336.487 213.591 336.739 214.473 337.189 215.193C337.639 215.913 338.206 216.453 338.89 216.813C339.592 217.173 340.321 217.353 341.077 217.353C342.841 217.353 344.2 216.525 345.154 214.869L347.098 215.814C346.504 216.93 345.694 217.812 344.668 218.46C343.66 219.108 342.436 219.432 340.996 219.432ZM344.965 210.657C344.929 210.081 344.767 209.505 344.479 208.929C344.191 208.353 343.732 207.867 343.102 207.471C342.49 207.075 341.716 206.877 340.78 206.877C339.7 206.877 338.782 207.228 338.026 207.93C337.288 208.614 336.802 209.523 336.568 210.657H344.965ZM356.896 199.668H359.191V205.365L359.083 207.255H359.191C359.569 206.553 360.163 205.968 360.973 205.5C361.801 205.032 362.701 204.798 363.673 204.798C365.347 204.798 366.625 205.293 367.507 206.283C368.389 207.255 368.83 208.551 368.83 210.171V219H366.535V210.522C366.535 209.28 366.22 208.362 365.59 207.768C364.96 207.174 364.141 206.877 363.133 206.877C362.413 206.877 361.747 207.093 361.135 207.525C360.541 207.957 360.064 208.515 359.704 209.199C359.362 209.883 359.191 210.594 359.191 211.332V219H356.896V199.668ZM373.756 202.692C373.306 202.692 372.919 202.53 372.595 202.206C372.271 201.882 372.109 201.495 372.109 201.045C372.109 200.595 372.271 200.217 372.595 199.911C372.919 199.587 373.306 199.425 373.756 199.425C374.206 199.425 374.593 199.587 374.917 199.911C375.241 200.217 375.403 200.595 375.403 201.045C375.403 201.495 375.241 201.882 374.917 202.206C374.611 202.53 374.224 202.692 373.756 202.692ZM372.622 205.23H374.89V219H372.622V205.23ZM378.74 209.685H387.299V211.575H378.74V209.685ZM390.955 199.668H393.25V219H390.955V199.668ZM398.27 202.692C397.82 202.692 397.433 202.53 397.109 202.206C396.785 201.882 396.623 201.495 396.623 201.045C396.623 200.595 396.785 200.217 397.109 199.911C397.433 199.587 397.82 199.425 398.27 199.425C398.72 199.425 399.107 199.587 399.431 199.911C399.755 200.217 399.917 200.595 399.917 201.045C399.917 201.495 399.755 201.882 399.431 202.206C399.125 202.53 398.738 202.692 398.27 202.692ZM397.136 205.23H399.404V219H397.136V205.23ZM408.441 219.216C407.883 219.216 407.361 219.126 406.875 218.946C406.407 218.766 406.011 218.523 405.687 218.217C405.327 217.875 405.057 217.479 404.877 217.029C404.697 216.579 404.607 216.03 404.607 215.382V207.309H402.204V205.23H404.607V201.342H406.902V205.23H410.25V207.309H406.902V214.815C406.902 215.571 407.046 216.129 407.334 216.489C407.676 216.885 408.171 217.083 408.819 217.083C409.341 217.083 409.845 216.93 410.331 216.624V218.865C410.061 218.991 409.782 219.081 409.494 219.135C409.224 219.189 408.873 219.216 408.441 219.216ZM418.829 219.432C417.515 219.432 416.336 219.117 415.292 218.487C414.248 217.857 413.429 216.993 412.835 215.895C412.259 214.779 411.971 213.528 411.971 212.142C411.971 210.81 412.241 209.586 412.781 208.47C413.339 207.354 414.122 206.463 415.13 205.797C416.138 205.131 417.308 204.798 418.64 204.798C419.99 204.798 421.16 205.104 422.15 205.716C423.14 206.31 423.896 207.138 424.418 208.2C424.958 209.262 425.228 210.477 425.228 211.845C425.228 212.115 425.201 212.349 425.147 212.547H414.266C414.32 213.591 414.572 214.473 415.022 215.193C415.472 215.913 416.039 216.453 416.723 216.813C417.425 217.173 418.154 217.353 418.91 217.353C420.674 217.353 422.033 216.525 422.987 214.869L424.931 215.814C424.337 216.93 423.527 217.812 422.501 218.46C421.493 219.108 420.269 219.432 418.829 219.432ZM422.798 210.657C422.762 210.081 422.6 209.505 422.312 208.929C422.024 208.353 421.565 207.867 420.935 207.471C420.323 207.075 419.549 206.877 418.613 206.877C417.533 206.877 416.615 207.228 415.859 207.93C415.121 208.614 414.635 209.523 414.401 210.657H422.798ZM438.942 218.136L433.245 205.23H435.729L440.049 215.463H440.103L444.261 205.23H446.745L438.24 224.832H435.864L438.942 218.136ZM454.739 219.432C453.389 219.432 452.174 219.108 451.094 218.46C450.014 217.812 449.168 216.93 448.556 215.814C447.962 214.698 447.665 213.465 447.665 212.115C447.665 210.765 447.962 209.532 448.556 208.416C449.168 207.3 450.014 206.418 451.094 205.77C452.174 205.122 453.389 204.798 454.739 204.798C456.089 204.798 457.304 205.122 458.384 205.77C459.464 206.418 460.301 207.3 460.895 208.416C461.507 209.532 461.813 210.765 461.813 212.115C461.813 213.465 461.507 214.698 460.895 215.814C460.301 216.93 459.464 217.812 458.384 218.46C457.304 219.108 456.089 219.432 454.739 219.432ZM454.739 217.353C455.585 217.353 456.368 217.146 457.088 216.732C457.826 216.3 458.411 215.688 458.843 214.896C459.293 214.104 459.518 213.177 459.518 212.115C459.518 211.053 459.293 210.126 458.843 209.334C458.411 208.542 457.826 207.939 457.088 207.525C456.368 207.093 455.585 206.877 454.739 206.877C453.893 206.877 453.101 207.093 452.363 207.525C451.625 207.939 451.031 208.542 450.581 209.334C450.149 210.126 449.933 211.053 449.933 212.115C449.933 213.177 450.149 214.104 450.581 214.896C451.031 215.688 451.625 216.3 452.363 216.732C453.101 217.146 453.893 217.353 454.739 217.353ZM469.611 219.432C467.955 219.432 466.686 218.946 465.804 217.974C464.94 217.002 464.508 215.643 464.508 213.897V205.23H466.803V213.546C466.803 214.86 467.1 215.823 467.694 216.435C468.288 217.047 469.089 217.353 470.097 217.353C470.871 217.353 471.555 217.146 472.149 216.732C472.761 216.318 473.229 215.778 473.553 215.112C473.895 214.446 474.066 213.744 474.066 213.006V205.23H476.361V219H474.174V217.002H474.066C473.688 217.686 473.085 218.262 472.257 218.73C471.429 219.198 470.547 219.432 469.611 219.432ZM480.021 205.23H482.208V207.444H482.316C482.586 206.688 483.108 206.067 483.882 205.581C484.656 205.077 485.466 204.825 486.312 204.825C486.942 204.825 487.482 204.915 487.932 205.095V207.579C487.356 207.291 486.708 207.147 485.988 207.147C485.322 207.147 484.71 207.336 484.152 207.714C483.594 208.092 483.144 208.605 482.802 209.253C482.478 209.883 482.316 210.567 482.316 211.305V219H480.021V205.23ZM496.961 205.23H499.148V207.255H499.256C499.652 206.553 500.246 205.968 501.038 205.5C501.83 205.032 502.667 204.798 503.549 204.798C504.557 204.798 505.43 205.041 506.168 205.527C506.924 206.013 507.464 206.661 507.788 207.471C508.274 206.661 508.913 206.013 509.705 205.527C510.515 205.041 511.451 204.798 512.513 204.798C514.097 204.798 515.285 205.284 516.077 206.256C516.887 207.21 517.292 208.515 517.292 210.171V219H515.024V210.522C515.024 209.244 514.763 208.317 514.241 207.741C513.719 207.165 512.945 206.877 511.919 206.877C511.235 206.877 510.614 207.075 510.056 207.471C509.498 207.867 509.057 208.398 508.733 209.064C508.427 209.73 508.274 210.45 508.274 211.224V219H505.979V210.549C505.979 209.253 505.718 208.317 505.196 207.741C504.674 207.165 503.909 206.877 502.901 206.877C502.217 206.877 501.596 207.084 501.038 207.498C500.48 207.894 500.039 208.434 499.715 209.118C499.409 209.784 499.256 210.504 499.256 211.278V219H496.961V205.23ZM527.201 219.432C525.851 219.432 524.636 219.108 523.556 218.46C522.476 217.812 521.63 216.93 521.018 215.814C520.424 214.698 520.127 213.465 520.127 212.115C520.127 210.765 520.424 209.532 521.018 208.416C521.63 207.3 522.476 206.418 523.556 205.77C524.636 205.122 525.851 204.798 527.201 204.798C528.551 204.798 529.766 205.122 530.846 205.77C531.926 206.418 532.763 207.3 533.357 208.416C533.969 209.532 534.275 210.765 534.275 212.115C534.275 213.465 533.969 214.698 533.357 215.814C532.763 216.93 531.926 217.812 530.846 218.46C529.766 219.108 528.551 219.432 527.201 219.432ZM527.201 217.353C528.047 217.353 528.83 217.146 529.55 216.732C530.288 216.3 530.873 215.688 531.305 214.896C531.755 214.104 531.98 213.177 531.98 212.115C531.98 211.053 531.755 210.126 531.305 209.334C530.873 208.542 530.288 207.939 529.55 207.525C528.83 207.093 528.047 206.877 527.201 206.877C526.355 206.877 525.563 207.093 524.825 207.525C524.087 207.939 523.493 208.542 523.043 209.334C522.611 210.126 522.395 211.053 522.395 212.115C522.395 213.177 522.611 214.104 523.043 214.896C523.493 215.688 524.087 216.3 524.825 216.732C525.563 217.146 526.355 217.353 527.201 217.353ZM536.947 205.23H539.134V207.255H539.242C539.638 206.553 540.232 205.968 541.024 205.5C541.816 205.032 542.653 204.798 543.535 204.798C544.543 204.798 545.416 205.041 546.154 205.527C546.91 206.013 547.45 206.661 547.774 207.471C548.26 206.661 548.899 206.013 549.691 205.527C550.501 205.041 551.437 204.798 552.499 204.798C554.083 204.798 555.271 205.284 556.063 206.256C556.873 207.21 557.278 208.515 557.278 210.171V219H555.01V210.522C555.01 209.244 554.749 208.317 554.227 207.741C553.705 207.165 552.931 206.877 551.905 206.877C551.221 206.877 550.6 207.075 550.042 207.471C549.484 207.867 549.043 208.398 548.719 209.064C548.413 209.73 548.26 210.45 548.26 211.224V219H545.965V210.549C545.965 209.253 545.704 208.317 545.182 207.741C544.66 207.165 543.895 206.877 542.887 206.877C542.203 206.877 541.582 207.084 541.024 207.498C540.466 207.894 540.025 208.434 539.701 209.118C539.395 209.784 539.242 210.504 539.242 211.278V219H536.947V205.23ZM566.971 219.432C565.657 219.432 564.478 219.117 563.434 218.487C562.39 217.857 561.571 216.993 560.977 215.895C560.401 214.779 560.113 213.528 560.113 212.142C560.113 210.81 560.383 209.586 560.923 208.47C561.481 207.354 562.264 206.463 563.272 205.797C564.28 205.131 565.45 204.798 566.782 204.798C568.132 204.798 569.302 205.104 570.292 205.716C571.282 206.31 572.038 207.138 572.56 208.2C573.1 209.262 573.37 210.477 573.37 211.845C573.37 212.115 573.343 212.349 573.289 212.547H562.408C562.462 213.591 562.714 214.473 563.164 215.193C563.614 215.913 564.181 216.453 564.865 216.813C565.567 217.173 566.296 217.353 567.052 217.353C568.816 217.353 570.175 216.525 571.129 214.869L573.073 215.814C572.479 216.93 571.669 217.812 570.643 218.46C569.635 219.108 568.411 219.432 566.971 219.432ZM570.94 210.657C570.904 210.081 570.742 209.505 570.454 208.929C570.166 208.353 569.707 207.867 569.077 207.471C568.465 207.075 567.691 206.877 566.755 206.877C565.675 206.877 564.757 207.228 564.001 207.93C563.263 208.614 562.777 209.523 562.543 210.657H570.94ZM576.326 205.23H578.513V207.255H578.621C578.999 206.571 579.602 205.995 580.43 205.527C581.258 205.041 582.14 204.798 583.076 204.798C584.732 204.798 585.992 205.284 586.856 206.256C587.738 207.21 588.179 208.515 588.179 210.171V219H585.884V210.522C585.884 209.244 585.578 208.317 584.966 207.741C584.354 207.165 583.517 206.877 582.455 206.877C581.717 206.877 581.051 207.084 580.457 207.498C579.881 207.912 579.431 208.461 579.107 209.145C578.783 209.811 578.621 210.513 578.621 211.251V219H576.326V205.23ZM596.337 219.216C595.779 219.216 595.257 219.126 594.771 218.946C594.303 218.766 593.907 218.523 593.583 218.217C593.223 217.875 592.953 217.479 592.773 217.029C592.593 216.579 592.503 216.03 592.503 215.382V207.309H590.1V205.23H592.503V201.342H594.798V205.23H598.146V207.309H594.798V214.815C594.798 215.571 594.942 216.129 595.23 216.489C595.572 216.885 596.067 217.083 596.715 217.083C597.237 217.083 597.741 216.93 598.227 216.624V218.865C597.957 218.991 597.678 219.081 597.39 219.135C597.12 219.189 596.769 219.216 596.337 219.216ZM606.272 219.432C604.796 219.432 603.563 219.09 602.573 218.406C601.583 217.704 600.881 216.813 600.467 215.733L602.519 214.815C602.861 215.643 603.365 216.282 604.031 216.732C604.715 217.182 605.462 217.407 606.272 217.407C607.136 217.407 607.874 217.236 608.486 216.894C609.098 216.534 609.404 216.03 609.404 215.382C609.404 214.806 609.161 214.347 608.675 214.005C608.189 213.645 607.424 213.339 606.38 213.087L604.706 212.655C603.608 212.385 602.708 211.926 602.006 211.278C601.304 210.63 600.953 209.793 600.953 208.767C600.953 207.975 601.187 207.282 601.655 206.688C602.141 206.076 602.78 205.608 603.572 205.284C604.364 204.96 605.219 204.798 606.137 204.798C607.343 204.798 608.414 205.059 609.35 205.581C610.304 206.103 610.979 206.832 611.375 207.768L609.377 208.686C608.765 207.462 607.676 206.85 606.11 206.85C605.354 206.85 604.688 207.03 604.112 207.39C603.554 207.732 603.275 208.173 603.275 208.713C603.275 209.217 603.473 209.631 603.869 209.955C604.265 210.261 604.859 210.513 605.651 210.711L607.649 211.224C608.999 211.566 610.016 212.079 610.7 212.763C611.384 213.429 611.726 214.248 611.726 215.22C611.726 216.066 611.483 216.813 610.997 217.461C610.511 218.091 609.854 218.577 609.026 218.919C608.198 219.261 607.28 219.432 606.272 219.432ZM619.531 205.23H621.88L625.174 216.111H625.201L628.657 205.23H631.033L634.516 216.084H634.543L637.81 205.23H640.132L635.677 219H633.355L629.791 208.011L626.254 219H623.959L619.531 205.23ZM643.652 202.692C643.202 202.692 642.815 202.53 642.491 202.206C642.167 201.882 642.005 201.495 642.005 201.045C642.005 200.595 642.167 200.217 642.491 199.911C642.815 199.587 643.202 199.425 643.652 199.425C644.102 199.425 644.489 199.587 644.813 199.911C645.137 200.217 645.299 200.595 645.299 201.045C645.299 201.495 645.137 201.882 644.813 202.206C644.507 202.53 644.12 202.692 643.652 202.692ZM642.518 205.23H644.786V219H642.518V205.23ZM653.823 219.216C653.265 219.216 652.743 219.126 652.257 218.946C651.789 218.766 651.393 218.523 651.069 218.217C650.709 217.875 650.439 217.479 650.259 217.029C650.079 216.579 649.989 216.03 649.989 215.382V207.309H647.586V205.23H649.989V201.342H652.284V205.23H655.632V207.309H652.284V214.815C652.284 215.571 652.428 216.129 652.716 216.489C653.058 216.885 653.553 217.083 654.201 217.083C654.723 217.083 655.227 216.93 655.713 216.624V218.865C655.443 218.991 655.164 219.081 654.876 219.135C654.606 219.189 654.255 219.216 653.823 219.216ZM658.82 199.668H661.115V205.365L661.007 207.255H661.115C661.493 206.553 662.087 205.968 662.897 205.5C663.725 205.032 664.625 204.798 665.597 204.798C667.271 204.798 668.549 205.293 669.431 206.283C670.313 207.255 670.754 208.551 670.754 210.171V219H668.459V210.522C668.459 209.28 668.144 208.362 667.514 207.768C666.884 207.174 666.065 206.877 665.057 206.877C664.337 206.877 663.671 207.093 663.059 207.525C662.465 207.957 661.988 208.515 661.628 209.199C661.286 209.883 661.115 210.594 661.115 211.332V219H658.82V199.668ZM685.277 219.432C684.269 219.432 683.369 219.234 682.577 218.838C681.785 218.442 681.173 217.902 680.741 217.218C680.309 216.516 680.093 215.724 680.093 214.842C680.093 213.384 680.642 212.25 681.74 211.44C682.838 210.612 684.224 210.198 685.898 210.198C686.726 210.198 687.491 210.288 688.193 210.468C688.913 210.648 689.462 210.855 689.84 211.089V210.252C689.84 209.226 689.48 208.407 688.76 207.795C688.04 207.165 687.131 206.85 686.033 206.85C685.259 206.85 684.548 207.021 683.9 207.363C683.252 207.687 682.739 208.146 682.361 208.74L680.633 207.444C681.173 206.616 681.911 205.968 682.847 205.5C683.801 205.032 684.854 204.798 686.006 204.798C687.878 204.798 689.345 205.293 690.407 206.283C691.487 207.255 692.027 208.587 692.027 210.279V219H689.84V217.029H689.732C689.336 217.695 688.742 218.262 687.95 218.73C687.158 219.198 686.267 219.432 685.277 219.432ZM685.493 217.407C686.267 217.407 686.987 217.209 687.653 216.813C688.319 216.417 688.85 215.886 689.246 215.22C689.642 214.554 689.84 213.825 689.84 213.033C689.408 212.745 688.877 212.511 688.247 212.331C687.617 212.151 686.951 212.061 686.249 212.061C684.989 212.061 684.035 212.322 683.387 212.844C682.757 213.366 682.442 214.041 682.442 214.869C682.442 215.625 682.73 216.237 683.306 216.705C683.882 217.173 684.611 217.407 685.493 217.407ZM700.485 219.432C698.829 219.432 697.56 218.946 696.678 217.974C695.814 217.002 695.382 215.643 695.382 213.897V205.23H697.677V213.546C697.677 214.86 697.974 215.823 698.568 216.435C699.162 217.047 699.963 217.353 700.971 217.353C701.745 217.353 702.429 217.146 703.023 216.732C703.635 216.318 704.103 215.778 704.427 215.112C704.769 214.446 704.94 213.744 704.94 213.006V205.23H707.235V219H705.048V217.002H704.94C704.562 217.686 703.959 218.262 703.131 218.73C702.303 219.198 701.421 219.432 700.485 219.432ZM716.318 219.216C715.76 219.216 715.238 219.126 714.752 218.946C714.284 218.766 713.888 218.523 713.564 218.217C713.204 217.875 712.934 217.479 712.754 217.029C712.574 216.579 712.484 216.03 712.484 215.382V207.309H710.081V205.23H712.484V201.342H714.779V205.23H718.127V207.309H714.779V214.815C714.779 215.571 714.923 216.129 715.211 216.489C715.553 216.885 716.048 217.083 716.696 217.083C717.218 217.083 717.722 216.93 718.208 216.624V218.865C717.938 218.991 717.659 219.081 717.371 219.135C717.101 219.189 716.75 219.216 716.318 219.216ZM721.316 199.668H723.611V205.365L723.503 207.255H723.611C723.989 206.553 724.583 205.968 725.393 205.5C726.221 205.032 727.121 204.798 728.093 204.798C729.767 204.798 731.045 205.293 731.927 206.283C732.809 207.255 733.25 208.551 733.25 210.171V219H730.955V210.522C730.955 209.28 730.64 208.362 730.01 207.768C729.38 207.174 728.561 206.877 727.553 206.877C726.833 206.877 726.167 207.093 725.555 207.525C724.961 207.957 724.484 208.515 724.124 209.199C723.782 209.883 723.611 210.594 723.611 211.332V219H721.316V199.668ZM742.955 219.432C741.641 219.432 740.462 219.117 739.418 218.487C738.374 217.857 737.555 216.993 736.961 215.895C736.385 214.779 736.097 213.528 736.097 212.142C736.097 210.81 736.367 209.586 736.907 208.47C737.465 207.354 738.248 206.463 739.256 205.797C740.264 205.131 741.434 204.798 742.766 204.798C744.116 204.798 745.286 205.104 746.276 205.716C747.266 206.31 748.022 207.138 748.544 208.2C749.084 209.262 749.354 210.477 749.354 211.845C749.354 212.115 749.327 212.349 749.273 212.547H738.392C738.446 213.591 738.698 214.473 739.148 215.193C739.598 215.913 740.165 216.453 740.849 216.813C741.551 217.173 742.28 217.353 743.036 217.353C744.8 217.353 746.159 216.525 747.113 214.869L749.057 215.814C748.463 216.93 747.653 217.812 746.627 218.46C745.619 219.108 744.395 219.432 742.955 219.432ZM746.924 210.657C746.888 210.081 746.726 209.505 746.438 208.929C746.15 208.353 745.691 207.867 745.061 207.471C744.449 207.075 743.675 206.877 742.739 206.877C741.659 206.877 740.741 207.228 739.985 207.93C739.247 208.614 738.761 209.523 738.527 210.657H746.924ZM752.31 205.23H754.497V207.255H754.605C754.983 206.571 755.586 205.995 756.414 205.527C757.242 205.041 758.124 204.798 759.06 204.798C760.716 204.798 761.976 205.284 762.84 206.256C763.722 207.21 764.163 208.515 764.163 210.171V219H761.868V210.522C761.868 209.244 761.562 208.317 760.95 207.741C760.338 207.165 759.501 206.877 758.439 206.877C757.701 206.877 757.035 207.084 756.441 207.498C755.865 207.912 755.415 208.461 755.091 209.145C754.767 209.811 754.605 210.513 754.605 211.251V219H752.31V205.23ZM772.321 219.216C771.763 219.216 771.241 219.126 770.755 218.946C770.287 218.766 769.891 218.523 769.567 218.217C769.207 217.875 768.937 217.479 768.757 217.029C768.577 216.579 768.487 216.03 768.487 215.382V207.309H766.084V205.23H768.487V201.342H770.782V205.23H774.13V207.309H770.782V214.815C770.782 215.571 770.926 216.129 771.214 216.489C771.556 216.885 772.051 217.083 772.699 217.083C773.221 217.083 773.725 216.93 774.211 216.624V218.865C773.941 218.991 773.662 219.081 773.374 219.135C773.104 219.189 772.753 219.216 772.321 219.216ZM778.669 202.692C778.219 202.692 777.832 202.53 777.508 202.206C777.184 201.882 777.022 201.495 777.022 201.045C777.022 200.595 777.184 200.217 777.508 199.911C777.832 199.587 778.219 199.425 778.669 199.425C779.119 199.425 779.506 199.587 779.83 199.911C780.154 200.217 780.316 200.595 780.316 201.045C780.316 201.495 780.154 201.882 779.83 202.206C779.524 202.53 779.137 202.692 778.669 202.692ZM777.535 205.23H779.803V219H777.535V205.23ZM789.784 219.432C788.452 219.432 787.255 219.117 786.193 218.487C785.131 217.839 784.303 216.966 783.709 215.868C783.115 214.752 782.818 213.501 782.818 212.115C782.818 210.729 783.115 209.478 783.709 208.362C784.303 207.246 785.131 206.373 786.193 205.743C787.255 205.113 788.452 204.798 789.784 204.798C791.278 204.798 792.529 205.149 793.537 205.851C794.563 206.535 795.292 207.453 795.724 208.605L793.645 209.469C793.303 208.623 792.79 207.984 792.106 207.552C791.44 207.102 790.63 206.877 789.676 206.877C788.866 206.877 788.11 207.102 787.408 207.552C786.706 207.984 786.139 208.596 785.707 209.388C785.293 210.18 785.086 211.089 785.086 212.115C785.086 213.141 785.293 214.05 785.707 214.842C786.139 215.634 786.706 216.255 787.408 216.705C788.11 217.137 788.866 217.353 789.676 217.353C790.648 217.353 791.485 217.128 792.187 216.678C792.889 216.228 793.411 215.589 793.753 214.761L795.805 215.625C795.337 216.759 794.581 217.677 793.537 218.379C792.511 219.081 791.26 219.432 789.784 219.432ZM799.907 202.692C799.457 202.692 799.07 202.53 798.746 202.206C798.422 201.882 798.26 201.495 798.26 201.045C798.26 200.595 798.422 200.217 798.746 199.911C799.07 199.587 799.457 199.425 799.907 199.425C800.357 199.425 800.744 199.587 801.068 199.911C801.392 200.217 801.554 200.595 801.554 201.045C801.554 201.495 801.392 201.882 801.068 202.206C800.762 202.53 800.375 202.692 799.907 202.692ZM798.773 205.23H801.041V219H798.773V205.23ZM810.078 219.216C809.52 219.216 808.998 219.126 808.512 218.946C808.044 218.766 807.648 218.523 807.324 218.217C806.964 217.875 806.694 217.479 806.514 217.029C806.334 216.579 806.244 216.03 806.244 215.382V207.309H803.841V205.23H806.244V201.342H808.539V205.23H811.887V207.309H808.539V214.815C808.539 215.571 808.683 216.129 808.971 216.489C809.313 216.885 809.808 217.083 810.456 217.083C810.978 217.083 811.482 216.93 811.968 216.624V218.865C811.698 218.991 811.419 219.081 811.131 219.135C810.861 219.189 810.51 219.216 810.078 219.216ZM819.287 218.136L813.59 205.23H816.074L820.394 215.463H820.448L824.606 205.23H827.09L818.585 224.832H816.209L819.287 218.136ZM827.045 221.241L828.476 219C828.152 218.946 827.864 218.775 827.612 218.487C827.36 218.199 827.234 217.848 827.234 217.434C827.234 216.966 827.396 216.57 827.72 216.246C828.062 215.904 828.476 215.733 828.962 215.733C829.448 215.733 829.853 215.904 830.177 216.246C830.519 216.57 830.69 216.966 830.69 217.434C830.69 217.74 830.627 218.037 830.501 218.325C830.375 218.595 830.186 218.91 829.934 219.27L828.152 221.97L827.045 221.241ZM839.185 205.23H841.534L844.828 216.111H844.855L848.311 205.23H850.687L854.17 216.084H854.197L857.464 205.23H859.786L855.331 219H853.009L849.445 208.011L845.908 219H843.613L839.185 205.23ZM866.092 219.432C865.084 219.432 864.184 219.234 863.392 218.838C862.6 218.442 861.988 217.902 861.556 217.218C861.124 216.516 860.908 215.724 860.908 214.842C860.908 213.384 861.457 212.25 862.555 211.44C863.653 210.612 865.039 210.198 866.713 210.198C867.541 210.198 868.306 210.288 869.008 210.468C869.728 210.648 870.277 210.855 870.655 211.089V210.252C870.655 209.226 870.295 208.407 869.575 207.795C868.855 207.165 867.946 206.85 866.848 206.85C866.074 206.85 865.363 207.021 864.715 207.363C864.067 207.687 863.554 208.146 863.176 208.74L861.448 207.444C861.988 206.616 862.726 205.968 863.662 205.5C864.616 205.032 865.669 204.798 866.821 204.798C868.693 204.798 870.16 205.293 871.222 206.283C872.302 207.255 872.842 208.587 872.842 210.279V219H870.655V217.029H870.547C870.151 217.695 869.557 218.262 868.765 218.73C867.973 219.198 867.082 219.432 866.092 219.432ZM866.308 217.407C867.082 217.407 867.802 217.209 868.468 216.813C869.134 216.417 869.665 215.886 870.061 215.22C870.457 214.554 870.655 213.825 870.655 213.033C870.223 212.745 869.692 212.511 869.062 212.331C868.432 212.151 867.766 212.061 867.064 212.061C865.804 212.061 864.85 212.322 864.202 212.844C863.572 213.366 863.257 214.041 863.257 214.869C863.257 215.625 863.545 216.237 864.121 216.705C864.697 217.173 865.426 217.407 866.308 217.407ZM876.305 205.23H878.492V207.444H878.6C878.87 206.688 879.392 206.067 880.166 205.581C880.94 205.077 881.75 204.825 882.596 204.825C883.226 204.825 883.766 204.915 884.216 205.095V207.579C883.64 207.291 882.992 207.147 882.272 207.147C881.606 207.147 880.994 207.336 880.436 207.714C879.878 208.092 879.428 208.605 879.086 209.253C878.762 209.883 878.6 210.567 878.6 211.305V219H876.305V205.23ZM886.7 205.23H888.887V207.255H888.995C889.391 206.553 889.985 205.968 890.777 205.5C891.569 205.032 892.406 204.798 893.288 204.798C894.296 204.798 895.169 205.041 895.907 205.527C896.663 206.013 897.203 206.661 897.527 207.471C898.013 206.661 898.652 206.013 899.444 205.527C900.254 205.041 901.19 204.798 902.252 204.798C903.836 204.798 905.024 205.284 905.816 206.256C906.626 207.21 907.031 208.515 907.031 210.171V219H904.763V210.522C904.763 209.244 904.502 208.317 903.98 207.741C903.458 207.165 902.684 206.877 901.658 206.877C900.974 206.877 900.353 207.075 899.795 207.471C899.237 207.867 898.796 208.398 898.472 209.064C898.166 209.73 898.013 210.45 898.013 211.224V219H895.718V210.549C895.718 209.253 895.457 208.317 894.935 207.741C894.413 207.165 893.648 206.877 892.64 206.877C891.956 206.877 891.335 207.084 890.777 207.498C890.219 207.894 889.778 208.434 889.454 209.118C889.148 209.784 888.995 210.504 888.995 211.278V219H886.7V205.23ZM915.202 219.216C914.644 219.216 914.122 219.126 913.636 218.946C913.168 218.766 912.772 218.523 912.448 218.217C912.088 217.875 911.818 217.479 911.638 217.029C911.458 216.579 911.368 216.03 911.368 215.382V207.309H908.965V205.23H911.368V201.342H913.663V205.23H917.011V207.309H913.663V214.815C913.663 215.571 913.807 216.129 914.095 216.489C914.437 216.885 914.932 217.083 915.58 217.083C916.102 217.083 916.606 216.93 917.092 216.624V218.865C916.822 218.991 916.543 219.081 916.255 219.135C915.985 219.189 915.634 219.216 915.202 219.216ZM920.199 199.668H922.494V205.365L922.386 207.255H922.494C922.872 206.553 923.466 205.968 924.276 205.5C925.104 205.032 926.004 204.798 926.976 204.798C928.65 204.798 929.928 205.293 930.81 206.283C931.692 207.255 932.133 208.551 932.133 210.171V219H929.838V210.522C929.838 209.28 929.523 208.362 928.893 207.768C928.263 207.174 927.444 206.877 926.436 206.877C925.716 206.877 925.05 207.093 924.438 207.525C923.844 207.957 923.367 208.515 923.007 209.199C922.665 209.883 922.494 210.594 922.494 211.332V219H920.199V199.668ZM935.385 221.241L936.816 219C936.492 218.946 936.204 218.775 935.952 218.487C935.7 218.199 935.574 217.848 935.574 217.434C935.574 216.966 935.736 216.57 936.06 216.246C936.402 215.904 936.816 215.733 937.302 215.733C937.788 215.733 938.193 215.904 938.517 216.246C938.859 216.57 939.03 216.966 939.03 217.434C939.03 217.74 938.967 218.037 938.841 218.325C938.715 218.595 938.526 218.91 938.274 219.27L936.492 221.97L935.385 221.241ZM953.438 219.432C952.43 219.432 951.53 219.234 950.738 218.838C949.946 218.442 949.334 217.902 948.902 217.218C948.47 216.516 948.254 215.724 948.254 214.842C948.254 213.384 948.803 212.25 949.901 211.44C950.999 210.612 952.385 210.198 954.059 210.198C954.887 210.198 955.652 210.288 956.354 210.468C957.074 210.648 957.623 210.855 958.001 211.089V210.252C958.001 209.226 957.641 208.407 956.921 207.795C956.201 207.165 955.292 206.85 954.194 206.85C953.42 206.85 952.709 207.021 952.061 207.363C951.413 207.687 950.9 208.146 950.522 208.74L948.794 207.444C949.334 206.616 950.072 205.968 951.008 205.5C951.962 205.032 953.015 204.798 954.167 204.798C956.039 204.798 957.506 205.293 958.568 206.283C959.648 207.255 960.188 208.587 960.188 210.279V219H958.001V217.029H957.893C957.497 217.695 956.903 218.262 956.111 218.73C955.319 219.198 954.428 219.432 953.438 219.432ZM953.654 217.407C954.428 217.407 955.148 217.209 955.814 216.813C956.48 216.417 957.011 215.886 957.407 215.22C957.803 214.554 958.001 213.825 958.001 213.033C957.569 212.745 957.038 212.511 956.408 212.331C955.778 212.151 955.112 212.061 954.41 212.061C953.15 212.061 952.196 212.322 951.548 212.844C950.918 213.366 950.603 214.041 950.603 214.869C950.603 215.625 950.891 216.237 951.467 216.705C952.043 217.173 952.772 217.407 953.654 217.407ZM963.651 205.23H965.838V207.255H965.946C966.324 206.571 966.927 205.995 967.755 205.527C968.583 205.041 969.465 204.798 970.401 204.798C972.057 204.798 973.317 205.284 974.181 206.256C975.063 207.21 975.504 208.515 975.504 210.171V219H973.209V210.522C973.209 209.244 972.903 208.317 972.291 207.741C971.679 207.165 970.842 206.877 969.78 206.877C969.042 206.877 968.376 207.084 967.782 207.498C967.206 207.912 966.756 208.461 966.432 209.145C966.108 209.811 965.946 210.513 965.946 211.251V219H963.651V205.23ZM984.888 219.432C983.664 219.432 982.548 219.117 981.54 218.487C980.55 217.857 979.767 216.993 979.191 215.895C978.615 214.779 978.327 213.519 978.327 212.115C978.327 210.729 978.615 209.478 979.191 208.362C979.767 207.246 980.55 206.373 981.54 205.743C982.548 205.113 983.664 204.798 984.888 204.798C985.95 204.798 986.895 205.041 987.723 205.527C988.551 205.995 989.181 206.58 989.613 207.282H989.721L989.613 205.365V199.668H991.908V219H989.721V216.975H989.613C989.181 217.659 988.551 218.244 987.723 218.73C986.895 219.198 985.95 219.432 984.888 219.432ZM985.158 217.353C985.968 217.353 986.715 217.137 987.399 216.705C988.101 216.273 988.659 215.661 989.073 214.869C989.505 214.077 989.721 213.159 989.721 212.115C989.721 211.071 989.505 210.153 989.073 209.361C988.659 208.569 988.101 207.957 987.399 207.525C986.715 207.093 985.968 206.877 985.158 206.877C984.366 206.877 983.619 207.093 982.917 207.525C982.215 207.957 981.648 208.578 981.216 209.388C980.802 210.18 980.595 211.089 980.595 212.115C980.595 213.141 980.802 214.059 981.216 214.869C981.648 215.661 982.215 216.273 982.917 216.705C983.619 217.137 984.366 217.353 985.158 217.353ZM1002.01 205.23H1004.19V207.282H1004.3C1004.71 206.58 1005.34 205.995 1006.16 205.527C1007.01 205.041 1007.95 204.798 1009 204.798C1010.22 204.798 1011.34 205.113 1012.35 205.743C1013.35 206.373 1014.15 207.246 1014.72 208.362C1015.3 209.478 1015.59 210.729 1015.59 212.115C1015.59 213.519 1015.3 214.779 1014.72 215.895C1014.15 216.993 1013.35 217.857 1012.35 218.487C1011.34 219.117 1010.22 219.432 1009 219.432C1007.95 219.432 1007.01 219.198 1006.16 218.73C1005.34 218.244 1004.71 217.659 1004.3 216.975H1004.19L1004.3 218.865V224.832H1002.01V205.23ZM1008.73 217.353C1009.52 217.353 1010.27 217.137 1010.97 216.705C1011.67 216.273 1012.23 215.661 1012.64 214.869C1013.08 214.059 1013.29 213.141 1013.29 212.115C1013.29 211.089 1013.08 210.18 1012.64 209.388C1012.23 208.578 1011.67 207.957 1010.97 207.525C1010.27 207.093 1009.52 206.877 1008.73 206.877C1007.94 206.877 1007.19 207.093 1006.49 207.525C1005.79 207.957 1005.23 208.569 1004.81 209.361C1004.4 210.153 1004.19 211.071 1004.19 212.115C1004.19 213.159 1004.4 214.077 1004.81 214.869C1005.23 215.661 1005.79 216.273 1006.49 216.705C1007.19 217.137 1007.94 217.353 1008.73 217.353ZM1023.38 219.432C1021.73 219.432 1020.46 218.946 1019.58 217.974C1018.71 217.002 1018.28 215.643 1018.28 213.897V205.23H1020.58V213.546C1020.58 214.86 1020.87 215.823 1021.47 216.435C1022.06 217.047 1022.86 217.353 1023.87 217.353C1024.64 217.353 1025.33 217.146 1025.92 216.732C1026.53 216.318 1027 215.778 1027.33 215.112C1027.67 214.446 1027.84 213.744 1027.84 213.006V205.23H1030.13V219H1027.95V217.002H1027.84C1027.46 217.686 1026.86 218.262 1026.03 218.73C1025.2 219.198 1024.32 219.432 1023.38 219.432ZM1033.79 205.23H1035.98V207.444H1036.09C1036.36 206.688 1036.88 206.067 1037.65 205.581C1038.43 205.077 1039.24 204.825 1040.08 204.825C1040.71 204.825 1041.25 204.915 1041.7 205.095V207.579C1041.13 207.291 1040.48 207.147 1039.76 207.147C1039.09 207.147 1038.48 207.336 1037.92 207.714C1037.37 208.092 1036.92 208.605 1036.57 209.253C1036.25 209.883 1036.09 210.567 1036.09 211.305V219H1033.79V205.23ZM1044.08 205.23H1046.27V207.282H1046.38C1046.79 206.58 1047.41 205.995 1048.24 205.527C1049.08 205.041 1050.03 204.798 1051.07 204.798C1052.3 204.798 1053.41 205.113 1054.42 205.743C1055.43 206.373 1056.22 207.246 1056.8 208.362C1057.37 209.478 1057.66 210.729 1057.66 212.115C1057.66 213.519 1057.37 214.779 1056.8 215.895C1056.22 216.993 1055.43 217.857 1054.42 218.487C1053.41 219.117 1052.3 219.432 1051.07 219.432C1050.03 219.432 1049.08 219.198 1048.24 218.73C1047.41 218.244 1046.79 217.659 1046.38 216.975H1046.27L1046.38 218.865V224.832H1044.08V205.23ZM1050.8 217.353C1051.6 217.353 1052.34 217.137 1053.04 216.705C1053.75 216.273 1054.3 215.661 1054.72 214.869C1055.15 214.059 1055.37 213.141 1055.37 212.115C1055.37 211.089 1055.15 210.18 1054.72 209.388C1054.3 208.578 1053.75 207.957 1053.04 207.525C1052.34 207.093 1051.6 206.877 1050.8 206.877C1050.01 206.877 1049.26 207.093 1048.56 207.525C1047.86 207.957 1047.3 208.569 1046.89 209.361C1046.47 210.153 1046.27 211.071 1046.27 212.115C1046.27 213.159 1046.47 214.077 1046.89 214.869C1047.3 215.661 1047.86 216.273 1048.56 216.705C1049.26 217.137 1050.01 217.353 1050.8 217.353ZM1066.94 219.432C1065.59 219.432 1064.37 219.108 1063.29 218.46C1062.21 217.812 1061.37 216.93 1060.76 215.814C1060.16 214.698 1059.87 213.465 1059.87 212.115C1059.87 210.765 1060.16 209.532 1060.76 208.416C1061.37 207.3 1062.21 206.418 1063.29 205.77C1064.37 205.122 1065.59 204.798 1066.94 204.798C1068.29 204.798 1069.5 205.122 1070.58 205.77C1071.66 206.418 1072.5 207.3 1073.1 208.416C1073.71 209.532 1074.01 210.765 1074.01 212.115C1074.01 213.465 1073.71 214.698 1073.1 215.814C1072.5 216.93 1071.66 217.812 1070.58 218.46C1069.5 219.108 1068.29 219.432 1066.94 219.432ZM1066.94 217.353C1067.79 217.353 1068.57 217.146 1069.29 216.732C1070.03 216.3 1070.61 215.688 1071.04 214.896C1071.49 214.104 1071.72 213.177 1071.72 212.115C1071.72 211.053 1071.49 210.126 1071.04 209.334C1070.61 208.542 1070.03 207.939 1069.29 207.525C1068.57 207.093 1067.79 206.877 1066.94 206.877C1066.09 206.877 1065.3 207.093 1064.56 207.525C1063.83 207.939 1063.23 208.542 1062.78 209.334C1062.35 210.126 1062.13 211.053 1062.13 212.115C1062.13 213.177 1062.35 214.104 1062.78 214.896C1063.23 215.688 1063.83 216.3 1064.56 216.732C1065.3 217.146 1066.09 217.353 1066.94 217.353ZM1081.62 219.432C1080.15 219.432 1078.91 219.09 1077.92 218.406C1076.93 217.704 1076.23 216.813 1075.82 215.733L1077.87 214.815C1078.21 215.643 1078.72 216.282 1079.38 216.732C1080.07 217.182 1080.81 217.407 1081.62 217.407C1082.49 217.407 1083.23 217.236 1083.84 216.894C1084.45 216.534 1084.76 216.03 1084.76 215.382C1084.76 214.806 1084.51 214.347 1084.03 214.005C1083.54 213.645 1082.78 213.339 1081.73 213.087L1080.06 212.655C1078.96 212.385 1078.06 211.926 1077.36 211.278C1076.66 210.63 1076.3 209.793 1076.3 208.767C1076.3 207.975 1076.54 207.282 1077.01 206.688C1077.49 206.076 1078.13 205.608 1078.92 205.284C1079.72 204.96 1080.57 204.798 1081.49 204.798C1082.69 204.798 1083.77 205.059 1084.7 205.581C1085.66 206.103 1086.33 206.832 1086.73 207.768L1084.73 208.686C1084.12 207.462 1083.03 206.85 1081.46 206.85C1080.71 206.85 1080.04 207.03 1079.46 207.39C1078.91 207.732 1078.63 208.173 1078.63 208.713C1078.63 209.217 1078.82 209.631 1079.22 209.955C1079.62 210.261 1080.21 210.513 1081 210.711L1083 211.224C1084.35 211.566 1085.37 212.079 1086.05 212.763C1086.74 213.429 1087.08 214.248 1087.08 215.22C1087.08 216.066 1086.83 216.813 1086.35 217.461C1085.86 218.091 1085.21 218.577 1084.38 218.919C1083.55 219.261 1082.63 219.432 1081.62 219.432ZM1096.11 219.432C1094.8 219.432 1093.62 219.117 1092.57 218.487C1091.53 217.857 1090.71 216.993 1090.12 215.895C1089.54 214.779 1089.25 213.528 1089.25 212.142C1089.25 210.81 1089.52 209.586 1090.06 208.47C1090.62 207.354 1091.4 206.463 1092.41 205.797C1093.42 205.131 1094.59 204.798 1095.92 204.798C1097.27 204.798 1098.44 205.104 1099.43 205.716C1100.42 206.31 1101.18 207.138 1101.7 208.2C1102.24 209.262 1102.51 210.477 1102.51 211.845C1102.51 212.115 1102.48 212.349 1102.43 212.547H1091.55C1091.6 213.591 1091.85 214.473 1092.3 215.193C1092.75 215.913 1093.32 216.453 1094 216.813C1094.71 217.173 1095.43 217.353 1096.19 217.353C1097.95 217.353 1099.31 216.525 1100.27 214.869L1102.21 215.814C1101.62 216.93 1100.81 217.812 1099.78 218.46C1098.77 219.108 1097.55 219.432 1096.11 219.432ZM1100.08 210.657C1100.04 210.081 1099.88 209.505 1099.59 208.929C1099.3 208.353 1098.85 207.867 1098.22 207.471C1097.6 207.075 1096.83 206.877 1095.89 206.877C1094.81 206.877 1093.9 207.228 1093.14 207.93C1092.4 208.614 1091.92 209.523 1091.68 210.657H1100.08ZM1106.98 219.162C1106.49 219.162 1106.08 219 1105.73 218.676C1105.41 218.334 1105.25 217.92 1105.25 217.434C1105.25 216.966 1105.41 216.57 1105.73 216.246C1106.08 215.904 1106.49 215.733 1106.98 215.733C1107.44 215.733 1107.84 215.904 1108.16 216.246C1108.51 216.57 1108.68 216.966 1108.68 217.434C1108.68 217.92 1108.51 218.334 1108.16 218.676C1107.84 219 1107.44 219.162 1106.98 219.162Z" fill="#291471"/>
</svg>
