<svg width="56" height="56" viewBox="0 0 56 56" fill="none" xmlns="http://www.w3.org/2000/svg">
<path d="M16.9648 15.207L8.35352 28.3691L19.835 18.1982L23.0762 44.7998H11.2002L0 56V14.0078L16.9648 15.207ZM56 39.2002C56 40.7401 55.4521 42.0587 54.3555 43.1553C53.2588 44.2519 51.9403 44.7998 50.4004 44.7998H24.4277V15.207H56V39.2002ZM50.4004 0C51.9403 5.74398e-06 53.2588 0.547992 54.3555 1.64453C55.452 2.74111 55.9999 4.05978 56 5.59961V15.2061L27.2979 10.4209L33.4512 0H50.4004ZM16.9648 10.4209L0 11.6191V5.59961C9.27178e-05 4.05978 0.548934 2.74111 1.64551 1.64453C2.74211 0.548068 4.06073 0 5.60059 0H11.1953L16.9648 10.4209ZM19.835 6.83105L13.2803 0H20.0244L19.835 6.83105ZM24.4277 6.83105L23.8574 0H31.3105L24.4277 6.83105Z" fill="url(#paint0_linear_415_1213)"/>
<defs>
<linearGradient id="paint0_linear_415_1213" x1="2.15043e-08" y1="28" x2="72.656" y2="25.063" gradientUnits="userSpaceOnUse">
<stop stop-color="#291471"/>
<stop offset="1" stop-color="#4E26D7"/>
</linearGradient>
</defs>
</svg>
