<svg width="766" height="849" viewBox="0 0 766 849" fill="none" xmlns="http://www.w3.org/2000/svg">
<line x1="93.3619" y1="78.4335" x2="93.3619" y2="830.584" stroke="black" stroke-width="0.5" stroke-dasharray="1 1"/>
<line x1="752.151" y1="170.586" y2="170.586" stroke="black" stroke-width="0.5" stroke-dasharray="1 1"/>
<line x1="473.065" y1="78.4335" x2="473.065" y2="830.584" stroke="black" stroke-width="0.5" stroke-dasharray="1 1"/>
<line x1="761.375" y1="550.177" x2="9.22412" y2="550.177" stroke="black" stroke-width="0.5" stroke-dasharray="1 1"/>
<line x1="283.214" y1="78.4335" x2="283.214" y2="830.584" stroke="black" stroke-width="0.5" stroke-dasharray="1 1"/>
<line x1="756.763" y1="360.382" x2="4.61206" y2="360.382" stroke="black" stroke-width="0.5" stroke-dasharray="1 1"/>
<line x1="662.917" y1="78.4335" x2="662.917" y2="830.584" stroke="black" stroke-width="0.5" stroke-dasharray="1 1"/>
<line x1="765.987" y1="739.973" x2="13.8362" y2="739.973" stroke="black" stroke-width="0.5" stroke-dasharray="1 1"/>
<path d="M145.466 286.637L146.136 287.307L147.078 287.213L147.55 287.166H147.551C149.742 286.947 154.145 286.952 157.886 287.832C159.766 288.274 161.22 288.879 162.143 289.581C162.97 290.211 163.241 290.794 163.241 291.484V293.484H164.135C170.352 313.907 179.611 327.966 190.482 336.729L187.292 358.427C153.06 358.171 123.23 339.425 107.294 311.67C108.387 305.249 109.812 296.891 112.319 288.914C115.37 279.206 119.751 271.027 126.195 267.365L145.466 286.637ZM195.974 340.632C200.005 343.131 204.196 344.977 208.473 346.22C209.944 346.647 211.423 347 212.905 347.286V355.059C206.639 356.797 200.106 357.891 193.379 358.274L195.974 340.632ZM232.072 347.341C227.867 349.608 223.468 351.563 218.905 353.17V348.07C223.325 348.381 227.741 348.113 232.072 347.341ZM224.392 262.809L224.654 264.593L235.794 340.349C230.258 341.88 224.557 342.503 218.905 342.054V263.192H212.905V341.158C211.982 340.955 211.061 340.723 210.146 340.457C205.639 339.148 201.198 337.06 196.937 334.078L207.156 264.593L207.419 262.809H224.392ZM188 172.433C212.138 172.433 234.125 181.629 250.656 196.711H237.199V201.132H223.748V185.774H208.062V200.382H194.534V197.46H178.849V224.832H194.534V221.91H208.062V235.438H196.377V251.124H199.298V262.809H201.354L201.221 263.72L191.518 329.693C182.499 321.341 174.553 308.301 169.127 289.203L168.581 287.282L168.135 287.408C167.52 286.369 166.695 285.506 165.775 284.806C163.898 283.377 161.519 282.522 159.26 281.99C155.437 281.091 151.227 280.955 148.405 281.092L128.45 261.136L127.503 260.188L125.648 260.962C115.536 265.175 109.965 276.392 106.595 287.115C104.934 292.401 103.728 297.844 102.791 302.744C97.7831 291.325 95 278.707 95 265.433C95 252.375 97.6925 239.95 102.548 228.678C106.325 230.593 110.597 231.674 115.117 231.674C130.488 231.674 142.949 219.213 142.949 203.843L142.941 203.188C142.804 197.254 140.806 191.777 137.512 187.319C152.051 177.902 169.384 172.433 188 172.433ZM132.582 190.743C135.325 194.393 136.949 198.926 136.949 203.843L136.942 204.406C136.648 216.015 127.29 225.373 115.681 225.667L115.117 225.674C111.503 225.674 108.101 224.793 105.102 223.24C111.651 210.398 121.098 199.278 132.582 190.743ZM252.885 198.811C254.372 200.26 255.81 201.758 257.197 203.303H252.885V198.811ZM223.748 222.66H237.199V224.082H252.885V218.989H267.568V217.266C276.092 231.314 281 247.798 281 265.433C281 265.602 280.997 265.77 280.996 265.937C275.002 252.357 262.611 239.442 242.106 228.927L240.327 228.014L238.501 231.572L237.588 233.352L239.367 234.265C267.012 248.441 278.039 266.487 279.28 283.32C275.484 302.807 265.601 320.119 251.687 333.201C248.461 335.258 245.07 337.008 241.572 338.401L230.59 263.72L230.456 262.809H232.512V251.124H235.434V235.438H223.748V222.66Z" fill="#FBC93D" stroke="black" stroke-width="4"/>
<circle cx="568" cy="454.433" r="93" fill="#FBC93D" stroke="black" stroke-width="4"/>
<path d="M373 173.433C427.124 173.433 471 217.31 471 271.433V358.433H285V173.433H373Z" fill="#D42724" stroke="black" stroke-width="4"/>
<path d="M188 362.433C239.362 362.433 281 404.071 281 455.433V549.433H95V455.433C95 404.071 136.638 362.433 188 362.433Z" fill="#D42724" stroke="black" stroke-width="4"/>
<path d="M660.5 639.933C660.5 694.057 616.624 737.933 562.5 737.933H475.5V551.933H660.5V639.933Z" fill="#D42724" stroke="black" stroke-width="4"/>
<path d="M183 553.933C236.848 553.933 280.5 597.586 280.5 651.433V737.933H193C139.152 737.933 95.5 694.281 95.5 640.433V553.933H183ZM285.5 651.433C285.5 597.586 329.152 553.933 383 553.933H470.5V640.433C470.5 694.281 426.848 737.933 373 737.933H285.5V651.433Z" fill="#291471" stroke="black" stroke-width="5"/>
<path d="M563 173.433C617.124 173.433 661 217.31 661 271.433V358.433H475V173.433H563Z" fill="#291471" stroke="black" stroke-width="4"/>
<path d="M411.26 382.08L525.395 273.476L529.247 276.599L441.384 419.251L718.395 463.534L718 468.503H411.721V847.433L406.74 847.749L362.408 498.941L253.642 591.312L249.959 587.998L331.708 468.201L4.83105 446.06V441.071L332.065 418.905L249.858 276.538L253.791 273.519L361.976 381.61L373.036 0.361206L378.026 0.216675L411.26 382.08Z" fill="#FBC93D" stroke="#1E1E1E" stroke-width="5"/>
</svg>
